<svg xmlns="http://www.w3.org/2000/svg" viewBox="92.367 45.924 300 381.03" width="300" height="381.03"><g class="page-1"><path d="M344.016 750.588c14.019-54.018 54.36-263.871 67.62-273.822 13.698-10.284 28.23-150.138 39.741-192.909L33.393 173.997Z" style="fill:#1f234a;fill-rule:evenodd;fill-opacity:1" transform="matrix(.51888 0 -.00159 -.51888 78.4 434.343)"/><path d="m452.625 224.379 10.638-52.737 137.808 2.355-100.044 575.46H341.118l2.646-11.562 63.15-276.078 76.365 1.305-65.307-61.545 15.42-84.033Z" style="fill:#cc1414;fill-rule:evenodd;fill-opacity:1" transform="matrix(.51888 0 -.00159 -.51888 78.4 434.343)"/><g transform="matrix(.51888 0 -.00159 -.51888 78.4 434.343)"/><path d="M196.281 771.456h305.097V120.942H196.281Z" style="fill:none" transform="matrix(.51888 0 -.00159 -.51888 78.4 434.343)"/><path d="m341.118 749.454 2.646-11.562 63.15-276.075 76.365 1.305-65.307-61.545 15.42-84.033 19.233-93.165 9.855-48.855-52.905 97.137.444.117-53.973 98.088-104.415-53.322 50.691 93.666-53.73 49.704 77.826-1.053 42.252 75.564-41.376 186.192Zm124.725-580.107-1.26 2.316Z" style="fill:#fff;fill-rule:evenodd;fill-opacity:1" transform="matrix(.51888 0 -.00159 -.51888 78.4 434.343)"/><path d="m49.872 132.111 13.221 2.448 25.338-95.478H76.434l-6.243 24.606-28.275-5.631-4.773-18.972H25.146ZM67.5 74.457l-10.773 42.231L44.976 69.93Zm27.297 23.379h5.877l2.568-6.366q1.101 1.347 2.571 2.814a21 21 0 0 0 3.306 2.694 18.6 18.6 0 0 0 4.038 2.019q2.202.795 4.773.795 5.385 0 8.508-2.019t4.713-5.571q2.202 2.571 5.814 5.079t8.262 2.511q4.284 0 7.161-1.287 2.877-1.284 4.59-3.612 1.713-2.325 2.448-5.568.735-3.246.735-7.038V39.078h-10.773v43.209q0 1.593-.183 3.12-.183 1.53-.735 2.694t-1.713 1.836-3.12.672q-2.814 0-5.631-1.47t-5.262-3.915q.123-.735.123-1.47V39.075h-10.773v43.209q0 1.593-.186 3.12-.183 1.53-.735 2.694a4.1 4.1 0 0 1-1.713 1.836q-1.164.672-3.12.672-2.817 0-5.571-1.47t-5.202-3.915V39.072h-10.77Zm75.156-29.379q0 15.423 5.691 23.379t14.751 7.956q4.038 0 7.101-1.653a15.6 15.6 0 0 0 5.142-4.404q2.079-2.754 3.12-6.243a24.6 24.6 0 0 0 1.041-7.038q0-5.265-1.407-8.997t-3.795-6.06a15 15 0 0 0-5.448-3.426 18.6 18.6 0 0 0-6.366-1.101q-4.653 0-8.445 2.448.612-8.202 3-12.606 2.385-4.407 6.669-4.407 5.019 0 9.792 3.672l4.038-8.448q-2.937-2.082-6.732-3.243t-7.101-1.164q-9.546 0-15.3 7.956t-5.754 23.379m11.262 2.814q2.571-2.814 6.366-2.814 3.426 0 6.12 2.754t2.694 9.243q0 3.918-1.407 7.038t-4.59 3.123q-4.161 0-6.489-5.019t-2.694-14.322m34.152 26.562h5.874l3.306-8.079q.978 1.47 2.631 3.243t3.978 3.306q2.328 1.53 5.325 2.508 3 .981 6.915.981V89.391q-5.508 0-10.281-2.511t-6.978-7.038V39.084h-10.773Zm46.269-58.755H250.86v58.755l10.773-2.448Zm-5.508 71.853q-2.451 0-4.284 1.836-1.836 1.836-1.836 4.284 0 2.451 1.836 4.284 1.836 1.836 4.284 1.836 2.451 0 4.284-1.836 1.836-1.836 1.836-4.284 0-2.451-1.836-4.284-1.836-1.836-4.284-1.836m15.912-42.474q0 15.423 5.754 23.379t15.3 7.956q3.306 0 7.098-1.164t6.732-3.243l-4.038-8.445q-4.773 3.672-9.792 3.672-4.896 0-7.344-5.754t-2.448-16.401 2.448-16.401 7.344-5.754q5.019 0 9.792 3.672l4.038-8.448q-2.937-2.082-6.732-3.243t-7.101-1.164q-9.549 0-15.3 7.956-5.754 7.959-5.754 23.379m41.25-2.448q0 16.281 6.243 25.032 6.243 8.754 17.016 8.754 5.754 0 10.527-1.776t7.467-3.732V39.084h-5.874l-3.06 7.713q-2.082-3.795-5.508-6.732t-8.814-2.937q-3.549 0-6.855 1.653-3.303 1.653-5.754 5.142t-3.915 8.997q-1.47 5.508-1.47 13.098m11.262 0q0-10.527 2.385-15.117t6.672-4.59q3.795 0 6.549 4.284t3.612 10.896v27.663a27 27 0 0 1-3.366 1.041 16 16 0 0 1-3.732.429q-5.754 0-8.934-6.549t-3.183-18.054m42.72 31.818h5.874l2.571-6.366a33 33 0 0 0 2.631 2.814 21 21 0 0 0 3.489 2.694A21 21 0 0 0 386.121 99q2.325.795 4.896.795 4.284 0 7.161-1.287 2.877-1.284 4.59-3.612 1.713-2.325 2.448-5.568.735-3.246.735-7.038V39.081h-10.773V82.29q0 1.593-.183 3.12-.183 1.53-.735 2.694t-1.713 1.836-3.12.672q-2.937 0-5.937-1.53a21.6 21.6 0 0 1-5.448-3.978V39.081h-10.77Zm108.942-60.714q-6.609 0-12.363 2.937t-10.098 9.057-6.855 15.486-2.511 22.218 2.511 22.215 6.855 15.486 10.098 9.057 12.363 2.937q11.262 0 19.584-6.12l-4.407-9.669q-4.038 2.814-7.467 4.101-3.429 1.284-7.713 1.284-3.918 0-7.344-2.265t-5.997-7.098-4.101-12.24-1.53-17.688q0-10.284 1.53-17.688t4.101-12.24 5.997-7.101 7.344-2.265q4.284 0 7.71 1.287 3.426 1.284 7.467 4.101l4.407-9.669q-8.325-6.12-19.587-6.12m28.275 58.266 10.773 2.448V54.633q0-1.59.183-3.12.186-1.53.735-2.694.552-1.164 1.713-1.836 1.164-.672 3.123-.672 3.672 0 6.366 1.53t5.019 4.347v43.209l10.773 2.448V39.084h-5.877l-2.568 6.243a27 27 0 0 0-2.388-2.814 16.5 16.5 0 0 0-3.306-2.631q-1.896-1.164-4.284-1.959t-5.325-.795q-4.284 0-7.161 1.284-2.877 1.287-4.59 3.612t-2.448 5.568-.735 7.038Zm53.979 2.448v21.543l10.773 2.448V97.839h16.158l-2.448-9.18h-13.71V54.507q0-4.284 1.041-6.243 1.041-1.956 3.978-1.959 5.019 0 9.792 3.672l4.038-8.448q-3.183-2.082-7.098-3.243-3.918-1.164-7.47-1.164-4.407 0-7.281 1.284-2.877 1.287-4.59 3.612t-2.448 5.508-.735 6.978v34.155h-4.773l-2.448 9.18Z" style="fill:#1d2036;fill-opacity:1" transform="matrix(.51888 0 -.00159 -.51888 78.4 434.343)"/></g></svg>