<?xml version="1.0" encoding="utf-8"?>
<!-- Generator: Adobe Illustrator 27.5.0, SVG Export Plug-In . SVG Version: 6.00 Build 0)  -->
<svg version="1.1" id="Layer_1" xmlns="http://www.w3.org/2000/svg" xmlns:xlink="http://www.w3.org/1999/xlink" x="0px" y="0px"
	 viewBox="0 0 2500 2500" style="enable-background:new 0 0 2500 2500;" xml:space="preserve">
<rect style="fill:#FFFFFF;" width="2500" height="2500"/>
<g>
	<linearGradient id="SVGID_1_" gradientUnits="userSpaceOnUse" x1="472.1293" y1="472.1294" x2="2008.6007" y2="2008.6007">
		<stop  offset="0" style="stop-color:#A5A5A5"/>
		<stop  offset="0.005" style="stop-color:#A6A6A6"/>
		<stop  offset="0.209" style="stop-color:#CFCFCF"/>
		<stop  offset="0.3698" style="stop-color:#E9E9E9"/>
		<stop  offset="0.4666" style="stop-color:#F2F2F2"/>
		<stop  offset="0.5728" style="stop-color:#EAEAEA"/>
		<stop  offset="0.7349" style="stop-color:#D5D5D5"/>
		<stop  offset="0.9318" style="stop-color:#B3B3B3"/>
		<stop  offset="1" style="stop-color:#A5A5A5"/>
	</linearGradient>
	<path style="fill:url(#SVGID_1_);" d="M2258.981,823.726c-55.159-130.41-134.107-247.513-234.65-348.056
		c-100.544-100.544-217.648-179.491-348.057-234.65c-135.055-57.124-278.475-86.088-426.274-86.088
		c-147.799,0-291.218,28.964-426.274,86.088c-130.41,55.158-247.513,134.106-348.056,234.65S296.178,693.316,241.02,823.726
		c-57.124,135.056-86.088,278.475-86.088,426.274c0,147.799,28.964,291.218,86.088,426.274
		c55.158,130.409,134.106,247.512,234.65,348.057c22.433,22.433,45.696,43.783,69.741,64.041l22.8-75.677
		c19.295-74.965,50.723-145.856,93.414-210.704c41.957-63.735,93.682-119.978,153.736-167.168
		c60.681-47.682,128.214-84.808,200.722-110.346c75.02-26.422,153.721-39.819,233.918-39.819
		c80.197,0,158.898,13.397,233.918,39.819c72.508,25.537,140.041,62.663,200.722,110.346
		c60.054,47.19,111.779,103.434,153.736,167.168c42.69,64.848,74.119,135.739,93.414,210.704l20.475,77.619
		c24.87-20.836,48.913-42.829,72.066-65.983c100.543-100.544,179.491-217.648,234.65-348.057
		c57.123-135.055,86.088-278.475,86.088-426.274C2345.068,1102.201,2316.104,958.782,2258.981,823.726z"/>
	<path style="fill:#273440;" d="M1931.789,2012.694c-19.294-74.965-50.724-145.856-93.414-210.704
		c-41.957-63.735-93.682-119.978-153.736-167.168c-60.681-47.682-128.214-84.808-200.722-110.346
		c-75.02-26.422-153.721-39.819-233.918-39.819c-80.197,0-158.898,13.397-233.918,39.819
		c-72.508,25.537-140.041,62.663-200.722,110.346c-60.054,47.19-111.779,103.434-153.736,167.168
		c-42.69,64.848-74.119,135.739-93.414,210.704l-22.8,75.677c11.156,9.399,22.488,18.553,33.98,27.477
		c74.753,58.045,156.522,105.99,244.336,143.133c135.056,57.123,278.475,86.088,426.274,86.088
		c147.799,0,291.218-28.965,426.274-86.088c95.041-40.199,183.004-93.048,262.651-157.668c4.473-3.629,8.919-7.296,13.339-10.999
		L1931.789,2012.694z"/>
	<path style="fill:#273440;" d="M1610.329,853.62c-19.702-46.581-47.89-88.398-83.782-124.29
		c-35.893-35.893-77.711-64.081-124.291-83.783c-48.267-20.415-99.493-30.766-152.256-30.766s-103.99,10.351-152.256,30.766
		c-46.581,19.702-88.398,47.891-124.291,83.783c-35.893,35.893-64.081,77.71-83.783,124.29
		c-20.415,48.266-30.766,99.493-30.766,152.256s10.351,103.99,30.766,152.256c19.702,46.58,47.89,88.398,83.783,124.291
		c35.893,35.892,77.709,64.08,124.291,83.782c48.266,20.416,99.493,30.767,152.256,30.767s103.99-10.351,152.256-30.767
		c46.58-19.702,88.398-47.89,124.291-83.782c35.892-35.893,64.08-77.71,83.782-124.291c20.416-48.267,30.767-99.493,30.767-152.256
		S1630.745,901.886,1610.329,853.62z"/>
</g>
</svg>
